<?xml version="1.0" encoding="UTF-8" standalone="no"?>
<svg xmlns:svg="http://www.w3.org/2000/svg" xmlns="http://www.w3.org/2000/svg" width="20" height="20">
  <g id="layer1">
    <path fill="white" d="M8.4,10.3C7.9,8.7,7.6,8.9,6.3,9.2c-0.9,0.3-1.5,0.4-1,2.1c0,0,0.7,2.7-1,5C3.8,17,4,18.1,4.7,18.6C4.9,18.9,5.2,19,5.4,19  c0.6,0.1,1.2-0.2,1.5-0.7C9.7,14.3,8.5,10.5,8.4,10.3z M6.5,17.4c-0.1,0.5-0.5,0.9-1,0.8c-0.5-0.1-0.8-0.5-0.7-1  c0.1-0.5,0.5-0.8,1-0.8C6.3,16.5,6.6,16.9,6.5,17.4z M16,5.5v8.2c0,3.4-2.6,6.2-6,6.3c-1,0-2-0.1-3-0.4c0.3-0.1,0.6-0.4,0.8-0.7  c0.6-1,1.1-2,1.4-2.9c0.2,0,0.3,0,0.5,0c1.3,0,2.3-1,2.3-2.3V5.5C12,4.7,11.3,4,10.5,4H9.8C7.4,4,5.3,5.5,4.4,7.5C4.4,7.7,2,8.9,2,9  c0,0,2.1-0.5,2.1-0.3C4,9.4,3.6,10,3,10.4c-1,0.6-3,1-3-0.1V9.8C0,4.4,4.4,0,9.8,0h0.7C13.5,0,16,2.5,16,5.5z"/>
  </g>
</svg>
